{"title":"The Musketeers S03E03 - Brothers in Arms x264 RB58.mp4","uid":15212124,"size":640095273,"categoryP":"video","categoryS":"tv_shows","magnet":"?xt=urn:btih:ad5ec7cca6b6edce09b6c6fa1589195f4bb3a040&amp;dn=The+Musketeers+S03E03+-+Brothers+in+Arms+x264+RB58.mp4&amp;tr=udp%3A%2F%2Ftracker.leechers-paradise.org%3A6969&amp;tr=udp%3A%2F%2Fzer0day.ch%3A1337&amp;tr=udp%3A%2F%2Fopen.demonii.com%3A1337&amp;tr=udp%3A%2F%2Ftracker.coppersurfer.tk%3A6969&amp;tr=udp%3A%2F%2Fexodus.desync.com%3A6969","seeders":0,"leechers":1,"uploader":"RedBaron58","files":1,"time":1467672719,"description":"The Musketeers S03E03 Brothers in Arms x264 mp4\r\n \nhttp://www.imdb.com/title/tt2733252/\r\n\r\nTrailer:\r\n\r\nPlease be patient My intial upload speed is limited.\r\nThank you for your kind comments and feedback on my other torrents, your feedback is welcome.\r\n\r\n\r\nAbout the Episode:\r\nKing Louis' estranged brother Gaston (newcomer Andre Flynn) returns to Paris, having previously \r\nbeen exiled from court. On arriving in the capital, he is involved in the brutal slaughter \r\nof a band of veteran soldiers at a tavern, and the Musketeers' loyalties are torn when the \r\ncrown orders them to defend the villainous prince against recrimination. \r\nMeanwhile, as Louis welcomes his traitorous sibling back into the fold with open arms, \r\nFeron and Grimaud believe they may have found a kindred spirit.\r\n \r\nTom Burke, Howard Charles and Santiago Cabrera starring as d'Artagnan, \r\nAthos, Porthos and Aramis.\r\n\r\n\r\nI hope you enjoy.\r\n\r\n\r\nTechnical:\r\n\r\nGeneral\r\nComplete name                            : I:The Musketeers S03E03 - Brothers in Arms x264 RB58.mp4\r\nFormat                                   : MPEG-4\r\nFormat profile                           : Base Media\r\nCodec ID                                 : isom\r\nFile size                                : 610 MiB\r\nDuration                                 : 55mn 51s\r\nOverall bit rate                         : 1 528 Kbps\r\nWriting application                      : Lavf54.63.104\r\n\r\nVideo\r\nID                                       : 1\r\nFormat                                   : AVC\r\nFormat/Info                              : Advanced Video Codec\r\nFormat profile                           :   \r\nFormat settings, CABAC                   : Yes\r\nFormat settings, ReFrames                : 4 frames\r\nCodec ID                                 : avc1\r\nCodec ID/Info                            : Advanced Video Coding\r\nDuration                                 : 55mn 51s\r\nBit rate                                 : 1 400 Kbps\r\nWidth                                    : 832 pixels\r\nHeight                                   : 468 pixels\r\nDisplay aspect ratio                     : 16:9\r\nFrame rate mode                          : Constant\r\nFrame rate                               : 25.000 fps\r\nColor space                              : YUV\r\nChroma subsampling                       : 4:2:0\r\nBit depth                                : 8 bits\r\nScan type                                : Progressive\r\nBits/(Pixel*Frame)                       : 0.144\r\nStream size                              : 559 MiB (92%)\r\nWriting library                          : x264 core 123 r2189 35cf912\r\nEncoding settings                        : cabac=1 / ref=3 / deblock=1:0:0\r\n\r\nAudio\r\nID                                       : 2\r\nFormat                                   : AAC\r\nFormat/Info                              : Advanced Audio Codec\r\nFormat profile                           : LC\r\nCodec ID                                 : 40\r\nDuration                                 : 55mn 51s\r\nBit rate mode                            : Constant\r\nBit rate                                 : 120 Kbps\r\nChannel(s)                               : 2 channels\r\nChannel positions                        : Front: L R\r\nSampling rate                            : 48.0 KHz\r\nCompression mode                         : Lossy\r\nStream size                              : 47.8 MiB (8%)","torrent":{"xt":"urn:btih:ad5ec7cca6b6edce09b6c6fa1589195f4bb3a040","amp;dn":"The+Musketeers+S03E03+-+Brothers+in+Arms+x264+RB58.mp4","amp;tr":["udp%3A%2F%2Ftracker.leechers-paradise.org%3A6969","udp%3A%2F%2Fzer0day.ch%3A1337","udp%3A%2F%2Fopen.demonii.com%3A1337","udp%3A%2F%2Ftracker.coppersurfer.tk%3A6969","udp%3A%2F%2Fexodus.desync.com%3A6969"],"infoHash":"ad5ec7cca6b6edce09b6c6fa1589195f4bb3a040","infoHashBuffer":{"type":"Buffer","data":[173,94,199,204,166,182,237,206,9,182,198,250,21,137,25,95,75,179,160,64]},"announce":[],"urlList":[]}}